<svg version="1.0" xmlns="http://www.w3.org/2000/svg" viewBox="0 0 480 575"><path d="M219.1 1.1C164.4 6 112.8 29.7 73.6 67.9c-14.8 14.5-22.5 23.7-33 39.5C17.5 141.9 4.4 179.8 1 221.5.2 231.3 0 271.6.2 356c.4 118.5.4 120.6 2.5 129 8.7 35.3 30.4 62.7 61.6 78 33.7 16.5 70.9 15.6 104.4-2.5l8.2-4.4 8.3 4.4c27.5 14.6 56.9 18 85.7 9.9 4.7-1.3 14.1-5.1 20.8-8.5l12.3-6.1 3 2.2c9.7 6.9 30.2 13.8 47.5 16.1 25.9 3.4 56.5-4.8 78.3-21 22.4-16.6 36-37 44.1-66l2.6-9.6V348c0-142.3.2-136.3-6.2-163.5-7.9-33.5-24.7-67.5-47-95.3C377 27.8 297.7-5.9 219.1 1.1zm59.1 53.3c52.1 11.2 96.3 42.3 123.8 87.1 10.4 16.9 19.9 41.2 23.9 61 3.9 19 4.2 33.8 3.9 153.5-.4 127.7.1 118.4-7.5 133.9-5.4 11.1-17 22.5-28.3 27.9-11.5 5.4-17.3 6.6-31.1 6-14-.6-21.3-3.2-33.9-11.7-11.6-7.8-15.7-9.3-25.5-9.3-9.7 0-15.7 2-25 8.7C265.9 520.4 255 524 240 524c-15.2 0-25.6-3.4-39.1-12.9-8.6-6.1-14.7-8.1-24.6-8.1-9.1 0-14.8 2.1-25.7 9.4-4.6 3.1-11.4 6.8-15.2 8.3-6.3 2.5-8 2.7-20.9 2.8-12.2 0-14.9-.3-20.8-2.4-14.7-5-28.2-16.9-35.6-31-7.5-14.6-7.1-5.5-7.1-143.7 0-135.7-.1-131.7 6-155.3 8.6-32.7 24.1-59.3 49.5-84.6 25.4-25.5 52-41 85.1-49.6 19-5 27.4-5.8 52.4-5.4 19.5.3 24.1.7 34.2 2.9z"/><path d="M114.5 181.8c-7.9 3.7-12.4 12-11.1 20.5 1.3 8.3 4.4 11.1 26.7 23.9 11.2 6.4 21.2 12.3 22.1 13 1.5 1.1-.8 2.8-19.5 13.5-11.7 6.7-22.3 13.2-23.6 14.4-3.1 2.9-6.1 9.6-6.1 13.9 0 7.9 7.4 17.2 14.5 18.6 8.3 1.5 10.5.5 49.9-22.3 43.5-25.1 43.8-25.4 44.4-36.1.3-6 0-7.2-2.6-11.2-2.6-4.1-6.1-6.4-41.7-26.9-34.6-20-39.3-22.5-43.9-22.8-3.5-.3-6.3.2-9.1 1.5zM261.4 222.9c-10.9 5-14.1 20.7-6.1 29.8 5.7 6.4 4.3 6.3 61.3 6.3h51.7l4.3-2.5c4.9-2.9 9.4-10.7 9.4-16.5 0-4.9-3.7-11.8-8.3-15.4l-3.9-3.1-52.1-.2c-49.3-.3-52.4-.2-56.3 1.6z"/></svg>
