<svg xmlns="http://www.w3.org/2000/svg" xmlns:xlink="http://www.w3.org/1999/xlink" viewBox="0 0 512 512"><defs><linearGradient id="x"><stop style="stop-color:#18324c;stop-opacity:1" offset="0"/><stop style="stop-color:#0b52a1;stop-opacity:1" offset="1"/></linearGradient><linearGradient id="w"><stop offset="0" style="stop-color:#fff;stop-opacity:0"/><stop offset="1" style="stop-color:#fff;stop-opacity:1"/></linearGradient><linearGradient id="u"><stop style="stop-color:#0f3058;stop-opacity:1" offset="0"/><stop offset=".6108" style="stop-color:#08a6f7;stop-opacity:1"/><stop style="stop-color:#00f5ff;stop-opacity:1" offset=".76896"/><stop style="stop-color:#07c8fa;stop-opacity:.0627451" offset="1"/></linearGradient><linearGradient id="s"><stop style="stop-color:#89c0c8;stop-opacity:1" offset="0"/><stop style="stop-color:#8eebf9;stop-opacity:1" offset="1"/></linearGradient><linearGradient id="o"><stop style="stop-color:#2f8aaa;stop-opacity:1" offset="0"/><stop style="stop-color:#2ca2cf;stop-opacity:0" offset="1"/></linearGradient><linearGradient id="n"><stop style="stop-color:#559eaf;stop-opacity:1" offset="0"/><stop style="stop-color:#559eaf;stop-opacity:0" offset="1"/></linearGradient><linearGradient id="m"><stop style="stop-color:#33abc7;stop-opacity:1" offset="0"/><stop style="stop-color:#33abc7;stop-opacity:0" offset="1"/></linearGradient><linearGradient id="l"><stop style="stop-color:#5da5b6;stop-opacity:1" offset="0"/><stop style="stop-color:#5da5b6;stop-opacity:0" offset="1"/></linearGradient><linearGradient id="j"><stop style="stop-color:#32c0e1;stop-opacity:1" offset="0"/><stop style="stop-color:#4d6986;stop-opacity:1" offset="1"/></linearGradient><linearGradient id="i"><stop style="stop-color:#f6c31f;stop-opacity:1" offset="0"/><stop style="stop-color:#fff;stop-opacity:0" offset="1"/></linearGradient><linearGradient id="g"><stop offset="0" style="stop-color:#4f5f6d;stop-opacity:1"/><stop style="stop-color:#5e93b6;stop-opacity:0" offset="1"/></linearGradient><linearGradient id="e"><stop style="stop-color:#1a1a1a;stop-opacity:1" offset="0"/><stop style="stop-color:#1a1a1a;stop-opacity:0" offset="1"/></linearGradient><linearGradient id="d"><stop style="stop-color:#ff9300;stop-opacity:1" offset="0"/><stop style="stop-color:#fff900;stop-opacity:1" offset="1"/></linearGradient><linearGradient id="c"><stop style="stop-color:#33d8e3;stop-opacity:1" offset="0"/><stop style="stop-color:#fff;stop-opacity:1" offset="1"/></linearGradient><linearGradient id="b"><stop style="stop-color:#32c0e1;stop-opacity:1" offset="0"/><stop style="stop-color:#4d6986;stop-opacity:1" offset="1"/></linearGradient><linearGradient id="a"><stop style="stop-color:#0390b2;stop-opacity:1" offset="0"/><stop style="stop-color:#00cfff;stop-opacity:1" offset="1"/></linearGradient><linearGradient id="f"><stop style="stop-color:#4f5f6d;stop-opacity:1" offset="0"/><stop style="stop-color:#63a3cc;stop-opacity:1" offset="1"/></linearGradient><linearGradient id="h"><stop offset="0" style="stop-color:#4f5f6d;stop-opacity:1"/><stop style="stop-color:#5e93b6;stop-opacity:0" offset="1"/></linearGradient><linearGradient id="k"><stop style="stop-color:#fff;stop-opacity:1" offset="0"/><stop style="stop-color:#fff;stop-opacity:0" offset="1"/></linearGradient><linearGradient id="p"><stop style="stop-color:#fff;stop-opacity:1" offset="0"/><stop style="stop-color:#fff;stop-opacity:0" offset="1"/></linearGradient><linearGradient id="q"><stop style="stop-color:#fff;stop-opacity:0" offset="0"/><stop style="stop-color:#fff;stop-opacity:1" offset="1"/></linearGradient><linearGradient id="r"><stop offset="0" style="stop-color:#4f5f6d;stop-opacity:1"/><stop style="stop-color:#5e93b6;stop-opacity:0" offset="1"/></linearGradient><linearGradient id="t"><stop style="stop-color:#fff;stop-opacity:0" offset="0"/><stop style="stop-color:#fff;stop-opacity:1" offset="1"/></linearGradient><linearGradient id="v"><stop style="stop-color:#0f3058;stop-opacity:1" offset="0"/><stop offset=".6108" style="stop-color:#08a6f7;stop-opacity:1"/><stop style="stop-color:#00f5ff;stop-opacity:1" offset=".76896"/><stop style="stop-color:#07c8fa;stop-opacity:.0627451" offset="1"/></linearGradient><linearGradient xlink:href="#i" id="y" gradientUnits="userSpaceOnUse" gradientTransform="matrix(.96593 .22886 -.25882 .85413 220.38324 68.30458)" x1="345.78864" y1="944.33325" x2="379.64648" y2="884.3103"/><linearGradient xlink:href="#d" id="z" gradientUnits="userSpaceOnUse" gradientTransform="matrix(.46168 -.06474 .07846 .4019 66.60971 657.14966)" x1="89.15962" y1="380.61447" x2="95.75458" y2="327.18951"/><linearGradient xlink:href="#l" id="A" gradientUnits="userSpaceOnUse" x1="788.33289" y1="388.73453" x2="771.71149" y2="437.30139"/><linearGradient xlink:href="#j" id="B" gradientUnits="userSpaceOnUse" x1="399.01025" y1="803.35962" x2="399.01025" y2="853.86719"/><linearGradient xlink:href="#n" id="C" gradientUnits="userSpaceOnUse" x1="279.42685" y1="208.20107" x2="531.10828" y2="296.81631"/><linearGradient xlink:href="#m" id="D" gradientUnits="userSpaceOnUse" x1="443.56491" y1="227.15767" x2="539.42914" y2="316.06467"/><linearGradient xlink:href="#b" id="E" gradientUnits="userSpaceOnUse" gradientTransform="matrix(.38063 -.04359 .04359 .38063 91.57658 656.85664)" x1="363.90088" y1="557.98511" x2="495.42419" y2="423.57477"/><linearGradient xlink:href="#w" id="F" gradientUnits="userSpaceOnUse" x1="207.5784" y1="246.7001" x2="208.38301" y2="247.34357"/><linearGradient xlink:href="#a" id="H" gradientUnits="userSpaceOnUse" gradientTransform="matrix(.38063 -.04359 .04359 .38063 91.57658 656.85664)" x1="522.82458" y1="226.01036" x2="626.50739" y2="477.35638"/><linearGradient xlink:href="#p" id="K" gradientUnits="userSpaceOnUse" gradientTransform="translate(-2 538.36218)" x1="323.716" y1="177.45238" x2="327.84738" y2="183.92371"/><linearGradient xlink:href="#o" id="L" gradientUnits="userSpaceOnUse" x1="317.72363" y1="193.68391" x2="345.21805" y2="234.02705"/><linearGradient xlink:href="#q" id="M" gradientUnits="userSpaceOnUse" gradientTransform="matrix(.38063 -.04359 .04359 .38063 91.57658 656.85664)" x1="607.99524" y1="487.10077" x2="621.7475" y2="504.41006"/><linearGradient xlink:href="#s" id="N" gradientUnits="userSpaceOnUse" x1="236.85983" y1="300.49744" x2="208.72697" y2="330.73773"/><linearGradient xlink:href="#t" id="O" gradientUnits="userSpaceOnUse" gradientTransform="translate(0 540.36218)" x1="221.37459" y1="327.80035" x2="186.31412" y2="342.55542"/><radialGradient xlink:href="#g" id="G" gradientUnits="userSpaceOnUse" gradientTransform="matrix(.84636 -.35456 .22047 .52627 -339.60049 598.81873)" cx="475.45282" cy="1002.8157" fx="475.45282" fy="1002.8157" r="223.84172"/><radialGradient xlink:href="#r" id="I" gradientUnits="userSpaceOnUse" gradientTransform="matrix(.91318 .01543 -.01269 .7508 -170.20528 263.42729)" cx="386.70862" cy="854.21173" fx="386.70862" fy="854.21173" r="223.84172"/><radialGradient xlink:href="#u" id="P" gradientUnits="userSpaceOnUse" gradientTransform="matrix(1 0 0 .74177 0 61.27489)" cx="190.75572" cy="237.28461" fx="190.75572" fy="237.28461" r="21.89945"/><radialGradient xlink:href="#x" id="S" gradientUnits="userSpaceOnUse" gradientTransform="matrix(1 0 0 .83099 0 36.98011)" cx="155.05624" cy="218.79904" fx="155.05624" fy="218.79904" r="14.46648"/><filter id="J" x="-.22438" width="1.44877" y="-.91" height="2.82"><feGaussianBlur stdDeviation="27.57716"/></filter><filter id="Q"><feGaussianBlur stdDeviation=".6622"/></filter><filter id="R"><feGaussianBlur stdDeviation=".13244"/></filter><filter id="T" x="-.6" width="2.2" y="-.6" height="2.2"><feGaussianBlur stdDeviation=".93649"/></filter></defs><path d="m163.65122 786.12121 10.39818 15.33925c-19.4612 50.84071 30.31928 107.92588 100.4358 126.67817 51.37314 12.08723 66.87808 45.66386 73.01598 61.67298 6.13788 16.00909-20.56539-130.71944-48.42349-195.18066-16.20835-37.50472-59.59994-55.14948-93.85325-54.62697-23.28294.35516-44.40191 17.84124-42.0228 27.94722 1.61002 6.83903.6882 13.01632.44958 18.17001z" style="opacity:.9;fill:url(#y);fill-opacity:1;stroke:none;filter:url(#filter3970)" transform="translate(-22.57126 -566.49646)"/><path d="M150.12927 774.61461C63.7912 808.80187 40.70875 818.60182 40.70875 818.60182s99.03666-24.54492 115.16848-18.69579c13.59503 4.92933 13.28306-32.82713-5.74796-25.29142z" style="fill:url(#z);fill-opacity:1;stroke:none" transform="translate(-22.57126 -566.49646)"/><path transform="matrix(.37712 -.0675 .0675 .37712 61.02006 109.57451)" style="opacity:.3;fill:url(#A);fill-opacity:1;stroke:none;filter:url(#filter3853)" d="M453.70345 324.86607c-48.95209 140.2457 12.24212 243.38292 86.11065 234.37518 49.67011-6.05693 78.36619-16.86828 114.98827-23.83275l-28.69485-15.42294 42.89867 12.98617c24.11284-3.6161 52.66553-5.33753 92.37704-3.14996l-56.16253-33.96613 125.11894 38.39391c23.69767.37215 47.32975-.91315 69.71359-3.12025l-61.46284-37.20524 103.76098 31.85624c55.38729-8.50996 95.40573-20.32618 95.40573-20.32618s38.8249 19.21296-129.97532-71.08221c-168.80025-90.29518-454.07833-109.50584-454.07833-109.50584z"/><path d="M280.65447 775.35286c-12.51948 55.51526 15.26837 92.10487 42.9922 85.45646 18.64185-4.47048 29.09315-9.83641 42.72899-14.08358l-11.59434-4.61965 16.8945 3.07302c9.02042-2.42743 19.81335-4.32722 35.02404-5.22553l-22.85759-10.48044 49.29737 9.16008c9.03623-.89129 17.97525-2.41059 26.39897-4.22635l-25.01622-11.48231 40.88295 7.60262c20.71105-5.65338 35.42817-11.89531 35.42817-11.89531s15.61532 5.62069-52.57069-21.3905c-68.18601-27.0112-177.60835-21.88851-177.60835-21.88851z" style="fill:url(#B);fill-opacity:1;stroke:none" transform="translate(-22.57126 -566.49646)"/><path transform="matrix(.3825 -.02167 .02167 .3825 74.927 80.18737)" style="opacity:.2;fill:url(#C);fill-opacity:1;stroke:none;filter:url(#filter3836)" d="M621.40673-23.28614C590.03294-6.0126 514.22269 46.97139 371.6544 205.40586 154.9842 446.18891 263.85055 633.98699 263.85055 633.98699c111.49607 45.81747 227.25401-41.08475 246.76807-134.03426 13.08549-62.32889-.16547-100.84168 1.36249-140.02275l-60.96666 41.26923 62.43501-56.8968c2.45708-15.87549 8.13332-32.37323 19.64378-51.05204 16.60263-26.94225 20.91085-45.20272 25.19327-69.85074l-66.81544 34.82728 72.33104-66.36128c4.22925-22.33912 10.74203-50.71473 23.80068-90.50446l-60.78134 25.75994 70.92669-55.12528c10.38826-28.87581 23.80885-62.85645 41.42109-103.34959 0 0-5.48578 1.3084-17.7625 8.06762z"/><path transform="matrix(.38063 -.04359 .04359 .38063 69.00532 90.36018)" style="opacity:.3;fill:url(#D);fill-opacity:1;stroke:none;filter:url(#filter3830)" d="M823.26702-2.04444c-34.74959 8.66927-121.59473 40.48778-299.96127 157.16073-271.07509 177.3154-213.8946 386.72025-213.8946 386.72025 96.05771 72.82533 230.20047 18.44133 272.85195-66.41891 28.60069-56.9045 25.64703-97.5259 37.15117-135.01118l-69.49787 24.29259 74.91666-39.02397c6.43805-14.71801 16.1473-29.21372 32.05465-44.3248 22.94471-21.79617 31.7826-38.34601 42.23024-61.07729l-73.50328 16.56837 86.90525-45.64072c9.80535-20.51288 23.36302-46.27683 46.16963-81.3996l-65.34965 9.3472 82.67221-35.13829c17.4321-25.2557 39.10196-54.67021 66.49053-89.30763 0 0-5.63794-.13908-19.23562 3.25325z"/><path d="m155.30282 798.7937 14.5336 14.06466c-3.91723 60.57301 60.87561 110.04614 134.09167 112.3828 53.16053-.0928 77.96488 32.57181 88.57942 48.47083 10.61454 15.89902-58.12564-137.46927-103.902-200.67358-26.63354-36.77344-73.71113-44.8172-106.64436-35.38103-22.38564 6.41404-37.66689 30.98103-32.41087 41.40459 3.55691 7.05393 4.47457 14.04032 5.75254 19.73173z" style="fill:url(#E);fill-opacity:1;stroke:none" transform="translate(-22.57126 -566.49646)"/><path transform="rotate(7.32204 398.16985 66.32116)" d="M212.65517 237.28461c0 8.97146-9.80472 16.24427-21.89945 16.24427-12.09473 0-21.89945-7.27281-21.89945-16.24427 0-8.97147 9.80472-16.24428 21.89945-16.24428 12.09473 0 21.89945 7.27281 21.89945 16.24428z" style="fill:url(#F);fill-opacity:1;stroke:none"/><path d="m155.30282 798.79371 14.5336 14.06465c-3.91722 60.57302 60.87561 110.04615 134.09167 112.3828 53.16053-.0928 77.96488 32.57181 88.57942 48.47081 10.61454 15.89904-58.12563-137.46924-103.902-200.67356-26.63353-36.77343-73.71113-44.81719-106.64435-35.38102-22.38564 6.41404-37.6669 30.98103-32.41088 41.40458 3.55691 7.05394 4.47457 14.04032 5.75254 19.73174z" style="fill:url(#G);fill-opacity:1;stroke:none" transform="translate(-22.57126 -566.49646)"/><path d="M475.67709 634.11592c-13.61094 1.73586-48.0835 9.93678-121.19255 46.30683-111.10853 55.27392-98.76912 137.51697-98.76912 137.51697 33.2723 32.027 86.75477 17.36738 106.79807-13.00141 13.44039-20.36432 14.14317-35.9523 20.20567-49.69697l-27.53406 6.11757 30.25814-11.47874c3.11127-5.31024 7.45714-10.38882 14.18886-15.42283 9.7098-7.26104 13.81651-13.16033 18.81362-21.33908l-28.71067 2.99864 35.11695-13.45712c4.65299-7.3636 10.96973-16.55635 21.22623-28.89395l-25.28377.61785 33.03416-9.65162c7.768-8.82516 17.33533-19.04206 29.31329-30.98896 0 0-2.1388-.30643-7.46482.37282z" style="fill:url(#H);fill-opacity:1;stroke:none" transform="translate(-22.57126 -566.49646)"/><path transform="matrix(.38063 -.04359 .04359 .38063 69.00532 90.36018)" d="M63.63961 272.27188c0 .13947-.45226.25254-1.01015.25254-.5579 0-1.01015-.11307-1.01015-.25254 0-.13947.45226-.25254 1.01015-.25254.5579 0 1.01015.11307 1.01015.25254z" style="fill:#fff;fill-opacity:1;stroke:none"/><path d="m155.30282 798.79372 14.5336 14.06465c-3.91722 60.57302 60.87561 110.04615 134.09167 112.3828 53.16053-.093 77.96488 32.5718 88.57942 48.4708 10.61454 15.899-58.12563-137.46923-103.902-200.67355-26.63353-36.77343-73.71113-44.81719-106.64435-35.38102-22.38564 6.41404-37.6669 30.98103-32.41088 41.40458 3.55691 7.05394 4.47457 14.04032 5.75254 19.73174z" style="fill:url(#I);fill-opacity:1;stroke:none" transform="translate(-22.57126 -566.49646)"/><path transform="matrix(.81796 0 0 .41611 31.41432 248.52602)" d="M426.28436 425.12689c0 20.08411-66.03006 36.36549-147.48227 36.36549-81.4522 0-147.48227-16.28138-147.48227-36.36549 0-20.0841 66.03007-36.36549 147.48227-36.36549 81.45221 0 147.48227 16.28139 147.48227 36.36549z" style="opacity:.3;fill:#000;fill-opacity:1;stroke:none;filter:url(#J)"/><path d="M465.0625 648.23718c-45.99485 16.4028-103.36447 40.08622-141.43751 67.28125-42.79665 29.26181-30.05935 76.26395-3.46875 83.5625 13.97177 6.15705 28.41968 5.62372 42.125 1.03125 11.7101-18.98909 12.65918-33.77461 18.4375-46.875l-27.53125 6.125 30.25-11.46875c3.11127-5.31024 7.45578-10.40349 14.18751-15.4375 9.7098-7.26104 13.81539-13.165 18.8125-21.34375l-28.68751 3 35.09376-13.4375c4.65299-7.3636 10.9935-16.56865 21.25-28.90625l-25.3125.625 33.0625-9.65625c3.92267-4.45651 8.29969-9.29013 13.21875-14.5z" style="fill:url(#K);stroke:none" transform="translate(-22.57126 -566.49646)"/><path transform="translate(-22.57126 -26.13428)" d="M467.0625 109.875c-45.99485 16.4028-103.36446 40.08622-141.4375 67.28125-42.79665 29.26181-30.05935 76.26395-3.46875 83.5625 13.97177 6.15705 28.41968 5.62372 42.125 1.03125 11.7101-18.98909 12.65918-33.77461 18.4375-46.875L355.1875 221l30.25-11.46875c3.11127-5.31024 7.45578-10.40349 14.1875-15.4375 9.7098-7.26104 13.81539-13.165 18.8125-21.34375l-28.6875 3 35.09375-13.4375c4.65299-7.3636 10.9935-16.56865 21.25-28.90625l-25.3125.625 33.0625-9.65625c3.92267-4.45651 8.29969-9.29013 13.21875-14.5z" style="fill:url(#L);stroke:none"/><path d="M475.67709 634.11592c-13.61094 1.73586-48.0835 9.93678-121.19255 46.30683-111.10853 55.27392-98.76912 137.51697-98.76912 137.51697 33.2723 32.027 86.75477 17.36738 106.79807-13.00141 13.44039-20.36432 14.14317-35.9523 20.20567-49.69697l-27.53406 6.11757 30.25814-11.47874c3.11127-5.31024 7.45714-10.38882 14.18886-15.42283 9.7098-7.26104 13.81651-13.16033 18.81362-21.33908l-28.71067 2.99864 35.11695-13.45712c4.65299-7.3636 10.96973-16.55635 21.22623-28.89395l-25.28377.61785 33.03416-9.65162c7.768-8.82516 17.33533-19.04206 29.31329-30.98896 0 0-2.1388-.30643-7.46482.37282z" style="fill:url(#M);fill-opacity:1;stroke:none" transform="translate(-22.57126 -566.49646)"/><path transform="translate(-22.57126 -26.13428)" d="m169.625 272.3125.21875.1875c-3.51071 54.28701 48.1557 99.64192 111.625 110.15625-19.55731-69.14369-69.04524-98.46464-91.5625-106.1875-6.63894-2.27699-13.7075-3.51756-20.28125-4.15625z" style="fill:url(#N);fill-opacity:1;stroke:none"/><path d="m169.625 812.67468.21875.1875c-3.51071 54.28701 48.1557 99.64192 111.625 110.15625-19.55731-69.14369-69.04524-98.46464-91.5625-106.1875-6.63894-2.27699-13.7075-3.51756-20.28125-4.15625z" style="fill:url(#O);fill-opacity:1;stroke:none" transform="translate(-22.57126 -566.49646)"/><path transform="rotate(7.32204 398.16985 66.32116)" d="M212.65517 237.28461c0 8.97146-9.80472 16.24427-21.89945 16.24427-12.09473 0-21.89945-7.27281-21.89945-16.24427 0-8.97147 9.80472-16.24428 21.89945-16.24428 12.09473 0 21.89945 7.27281 21.89945 16.24428z" style="opacity:.2;fill:url(#P);fill-opacity:1;stroke:none"/><path transform="translate(15.1231 -11.05653)" d="M169.52273 218.79904c0 6.63926-6.47687 12.02145-14.46649 12.02145-7.98961 0-14.46648-5.38219-14.46648-12.02145s6.47687-12.02144 14.46648-12.02144c7.98962 0 14.46649 5.38218 14.46649 12.02144z" style="fill:#154868;fill-opacity:1;stroke:none;filter:url(#Q)"/><path style="fill:#00b2ff;fill-opacity:1;stroke:none;filter:url(#R)" d="M169.52273 218.79904c0 6.63926-6.47687 12.02145-14.46649 12.02145-7.98961 0-14.46648-5.38219-14.46648-12.02145s6.47687-12.02144 14.46648-12.02144c7.98962 0 14.46649 5.38218 14.46649 12.02144z" transform="matrix(.90263 0 0 .90263 30.22023 10.24695)"/><path transform="matrix(.84537 0 0 .84537 39.09963 22.77663)" d="M169.52273 218.79904c0 6.63926-6.47687 12.02145-14.46649 12.02145-7.98961 0-14.46648-5.38219-14.46648-12.02145s6.47687-12.02144 14.46648-12.02144c7.98962 0 14.46649 5.38218 14.46649 12.02144z" style="fill:url(#S);fill-opacity:1;stroke:none;filter:url(#filter4377)"/><path transform="rotate(-8.28587 -10.10928 372.8271)" d="M195.39939 232.65427c0 2.13806-2.69109 3.87131-6.01072 3.87131s-6.01072-1.73325-6.01072-3.87131c0-2.13807 2.69109-3.87132 6.01072-3.87132s6.01072 1.73325 6.01072 3.87132z" style="opacity:.7;fill:#97f4f4;fill-opacity:1;stroke:none"/><path transform="translate(-23.59002 -25.93052)" d="M189.31497 232.06165c0 1.03441-.83857 1.87297-1.87298 1.87297-1.03442 0-1.87298-.83856-1.87298-1.87297 0-1.03442.83856-1.87298 1.87298-1.87298 1.03441 0 1.87298.83856 1.87298 1.87298z" style="fill:#fff;fill-opacity:1;stroke:none;filter:url(#T)"/><path transform="translate(-22.57126 -26.13428)" d="M55.90122 273.41127s67.6948-19.4338 80.68218-22.7639c11.23788-2.88151 15.84829-4.03412 15.84829-4.03412" style="fill:none;stroke:#ea981a;stroke-width:1px;stroke-linecap:butt;stroke-linejoin:miter;stroke-opacity:1"/></svg>
